inDegrees=yes
name=wink_l_res.mot
DataType=double
version=3
OpenSimVersion=4.4-2022-07-23-0e9fedc
endheader
time	pelvis_tilt	pelvis_list	pelvis_rotation	pelvis_tx	pelvis_ty	pelvis_tz	hip_flexion_r	hip_adduction_r	hip_rotation_r	knee_angle_r	knee_angle_r_beta	ankle_angle_r	subtalar_angle_r	mtp_angle_r	hip_flexion_l	hip_adduction_l	hip_rotation_l	knee_angle_l	knee_angle_l_beta	ankle_angle_l	subtalar_angle_l	mtp_angle_l	lumbar_extension	lumbar_bending	lumbar_rotation	arm_flex_r	arm_add_r	arm_rot_r	elbow_flex_r	pro_sup_r	wrist_flex_r	wrist_dev_r	arm_flex_l	arm_add_l	arm_rot_l	elbow_flex_l	pro_sup_l	wrist_flex_l	wrist_dev_l
50	-0.9269969588521906	0.1807288291286538	88.83005217051452	0	0.9399999999999999	0	42.41877049458544	-10.22730376340623	0	58.56721559172941	1.022190745801037	-5.056382886858997	0	0	42.41877049458544	-10.22730376340623	0	58.56721559172941	1.022190745801037	-5.056382886858997	0	0	-1.137920823370811	-2.062236304344321	1.530480446599799	0	-10.90324044632316	0	75.63808314734	46.07646630088878	0	0	63.45754995722471	-13.80835203397466	-42.07193477538381	0.02946245447434544	46.07646630088878	0	0
51	-0.9205082834962127	0.1933036109803289	88.83801551808298	0	0.9399999999999999	0	42.42851056650721	-10.22518024391402	0	58.57251476776656	1.022283233870528	-5.055746643087794	0	0	42.42851056650721	-10.22518024391402	0	58.57251476776656	1.022283233870528	-5.055746643087794	0	0	-1.15396887751626	-2.061927835514	1.525400752412639	0	-10.91254618833875	0	75.6356773453	46.06795639372237	0	0	62.28412549438484	-2.756414032740353	-41.52832315502419	0.02467289658316764	46.06795639372237	0	0
52	-0.9253199637086084	0.177871550598616	88.83264178682232	0	0.9399999999999999	0	42.44306364273474	-10.22204638636055	0	58.5804914781983	1.02242245373104	-5.054810355946866	0	0	42.44306364273474	-10.22204638636055	0	58.5804914781983	1.02242245373104	-5.054810355946866	0	0	-0.4540399304794921	-1.752939963983458	1.849217771882117	0	-10.92652545107462	0	75.63208265516859	46.05536667287522	0	0	62.1534923376212	7.253777358588844	-40.99746506180608	0.0222355832402754	46.05536667287522	0	0
53	-0.3792883258451019	0.5671820429294395	89.73052455681899	0	0.9399999999999999	0	42.45610044740815	-10.21920580278547	0	58.58757828700271	1.022546141878137	-5.053959234470931	0	0	42.45610044740815	-10.21920580278547	0	58.58757828700271	1.022546141878137	-5.053959234470931	0	0	-0.8532401376662904	-1.192718784969812	0.9601716320904136	0	-10.93899073136365	0	75.62886254644677	46.04398334846557	0	0	62.83405996650449	15.64980280833102	-39.12267348407168	0.02196245624110708	46.04398334846557	0	0
54	-0.3766622885007577	0.5582924325733709	89.72438485422674	0	0.9399999999999999	0	42.45701255787672	-10.21893081400904	0	58.58797472767025	1.022553061073074	-5.053870900224275	0	0	42.45701255787672	-10.21893081400904	0	58.58797472767025	1.022553061073074	-5.053870900224275	0	0	-0.8475509234753038	-1.197046560599352	0.9581019973921606	0	-10.93973527000283	0	75.62863737514732	46.04294728707057	0	0	62.90276972437729	18.05001832587467	-39.57979776878371	0.0224092239415062	46.04294728707057	0	0
55	-0.9014368964392576	0.1907737267547615	88.82907540284431	0	0.9399999999999999	0	42.49275901071856	-10.20992030051139	0	58.60465161437106	1.022844127654985	-5.05112861423124	0	0	42.49275901071856	-10.20992030051139	0	58.60465161437106	1.022844127654985	-5.05112861423124	0	0	-0.4771020758513572	-1.693120668710256	1.835517255059711	0	-10.97079340494536	0	75.61981037557872	46.00753835190897	0	0	61.02579507856093	18.70445787808939	-39.35724988142299	0.01949552399716381	46.00753835190897	0	0
56	-0.9155328641888615	0.1892628517211535	88.82880339911171	0	0.9399999999999999	0	42.49346728470249	-10.20971286950248	0	58.60496025937559	1.022849514526534	-5.051062687013806	0	0	42.49346728470249	-10.20971286950248	0	58.60496025937559	1.022849514526534	-5.051062687013806	0	0	-0.4601484197063097	-1.735713490483632	1.8408316866313	0	-10.97137550567009	0	75.61963551752413	46.00675073588339	0	0	59.96718702943318	18.81787919390852	-38.19526376607618	0.01599649346059603	46.00675073588339	0	0
57	-0.3720502182744362	0.5539233104881556	89.72644106513137	0	0.9399999999999999	0	42.53224405584616	-10.20015320165808	0	58.62287368777592	1.02316216283244	-5.048185119201774	0	0	42.53224405584616	-10.20015320165808	0	58.62287368777592	1.02316216283244	-5.048185119201774	0	0	-0.8472942781970734	-1.194613728155977	0.9569127110613654	0	-11.0050570175399	0	75.61006003788412	45.96890211655621	0	0	57.61957267935858	19.59859731916972	-37.05686001113884	0.01525519911727475	45.96890211655621	0	0
58	-0.337564724381369	0.5704505607041045	89.72915666430512	0	0.9399999999999999	0	42.53277532376553	-10.20000256767549	0	58.62310596990591	1.023166216920402	-5.048137803004733	0	0	42.53277532376553	-10.20000256767549	0	58.62310596990591	1.023166216920402	-5.048137803004733	0	0	-0.8774179235133798	-1.150757302800995	0.9422328980765278	0	-11.00549703854493	0	75.60992887279778	45.96832521194269	0	0	57.10266437237784	19.31802091929506	-36.49883391894699	0.01597607463084469	45.96832521194269	0	0
59	-0.9266577016320912	0.1817550211629324	88.8352145903289	0	0.9399999999999999	0	42.54678448581519	-10.19720734994736	0	58.63081930922498	1.023300840087843	-5.047325637123836	0	0	42.54678448581519	-10.19720734994736	0	58.63081930922498	1.023300840087843	-5.047325637123836	0	0	-0.4481706025689396	-1.752392780823448	1.844340397793522	0	-11.01919939951727	0	75.60646828811564	45.95686471956223	0	0	55.62206763678667	16.04930163774658	-36.08203256556638	0.01708812651628857	45.95686471956223	0	0
60	-0.927944268290257	0.1925969993240583	88.82389412303145	0	0.9399999999999999	0	42.55972733881886	-10.19465572060248	0	58.63795243882807	1.023425336685389	-5.046587330392862	0	0	42.55972733881886	-10.19465572060248	0	58.63795243882807	1.023425336685389	-5.046587330392862	0	0	-0.4514084886309999	-1.753340167140518	1.845925065549271	0	-11.03190002538498	0	75.60327106921721	45.94637057378414	0	0	56.00562624679194	11.33274777499384	-35.48390632089712	0.01725716399224967	45.94637057378414	0	0
61	-0.9276495817044161	0.1765344784918276	88.83253186745779	0	0.9399999999999999	0	42.57365349950269	-10.19196115804365	0	58.64566357546608	1.023559921408793	-5.045812280970916	0	0	42.57365349950269	-10.19196115804365	0	58.64566357546608	1.023559921408793	-5.045812280970916	0	0	-0.4428909441046749	-1.752053697359188	1.848375075851824	0	-11.04564491454423	0	75.5998308789753	45.93523805418241	0	0	56.43807612723107	5.58810861217919	-32.97946108108803	0.01579056250751749	45.93523805418241	0	0
62	-0.3749303312523907	0.5510636590418342	89.72149635983789	0	0.9399999999999999	0	42.58723584799361	-10.18933908592416	0	58.65316681216987	1.023690877593831	-5.045058902378574	0	0	42.58723584799361	-10.18933908592416	0	58.65316681216987	1.023690877593831	-5.045058902378574	0	0	-0.8402068078347122	-1.189057368902504	0.9661637950830324	0	-11.0590541359656	0	75.59647561736647	45.92439723629997	0	0	57.60243149427066	0.3779385250671308	-27.27877358725245	0.01412688467645085	45.92439723629997	0	0
63	-0.9297591820201184	0.1722525384490204	88.83988738896157	0	0.9399999999999999	0	42.61103926923953	-10.18476498850925	0	58.66639519377534	1.023921756407556	-5.043745053963502	0	0	42.61103926923953	-10.18476498850925	0	58.66639519377534	1.023921756407556	-5.043745053963502	0	0	-0.4371637695109471	-1.750309709484141	1.843042352732811	0	-11.08263697561217	0	75.5905953643129	45.90547696971917	0	0	58.16949243722123	-2.899930373576581	-20.32255585277744	0.01327424095110401	45.90547696971917	0	0
64	-0.9266122272314371	0.1729000859056288	88.83322973212417	0	0.9399999999999999	0	42.63090051271752	-10.18100972404659	0	58.67741187607361	1.024114033786307	-5.042672984094247	0	0	42.63090051271752	-10.18100972404659	0	58.67741187607361	1.024114033786307	-5.042672984094247	0	0	-0.4295482971601569	-1.744278525451899	1.845012661243961	0	-11.10238484344457	0	75.58568890352798	45.88987477796721	0	0	58.2299778376511	-7.439853527199914	-12.85880777923579	0.01228166797186421	45.88987477796721	0	0
65	-0.3768254338861339	0.5499941335911384	89.7265886569093	0	0.9399999999999999	0	42.64421479897942	-10.17850108718276	0	58.68473231615334	1.024241799568394	-5.041958897599895	0	0	42.64421479897942	-10.17850108718276	0	58.68473231615334	1.024241799568394	-5.041958897599895	0	0	-0.8439496299964465	-1.197700311497769	0.9520240857652031	0	-11.11560381264875	0	75.58239979703386	45.87943379184379	0	0	58.66328195944905	-13.14300241745919	-5.530392710450608	0.01098157993312403	45.87943379184379	0	0
66	-0.9279773622659911	0.1804224623637333	88.83173855719413	0	0.9399999999999999	0	42.65732468097472	-10.17604857104002	0	58.69193554580829	1.02436751964265	-5.04126260664373	0	0	42.65732468097472	-10.17604857104002	0	58.69193554580829	1.02436751964265	-5.04126260664373	0	0	-0.4414332399389284	-1.75081125160385	1.84548973152399	0	-11.12864306077926	0	75.57916116635728	45.86920697895551	0	0	60.30677304653953	-17.21519028192597	1.038039717806476	0.01037717542216284	45.86920697895551	0	0
67	-0.9263123324629002	0.1780394996549255	88.83359990639073	0	0.9399999999999999	0	42.66935767969781	-10.17380027524587	0	58.69853188676939	1.024482647511005	-5.040624750344747	0	0	42.66935767969781	-10.17380027524587	0	58.69853188676939	1.024482647511005	-5.040624750344747	0	0	-0.4401474102211244	-1.74897635600308	1.841897424580636	0	-11.1406115690992	0	75.57618856487693	45.85982761782596	0	0	61.2084258885731	-21.29716226363055	7.037095232065906	0.01013380861639553	45.85982761782596	0	0
68	-0.9252685282417721	0.1822724369038386	88.83119440463757	0	0.9399999999999999	0	42.68034739139995	-10.17173135174645	0	58.70451915016128	1.024587144970378	-5.040036799655639	0	0	42.68034739139995	-10.17173135174645	0	58.70451915016128	1.024587144970378	-5.040036799655639	0	0	-0.4478167325990457	-1.745609226807888	1.846691679734185	0	-11.15150798723269	0	75.57347371967661	45.85120957578174	0	0	63.50879555238987	-24.88727003981176	13.03966395591757	0.009522702496098224	45.85120957578174	0	0
69	-0.9286198749814294	0.1840767112936026	88.82516917536719	0	0.9399999999999999	0	42.69070862992456	-10.16978146287772	0	58.71015819115318	1.024685564802341	-5.039482803057186	0	0	42.69070862992456	-10.16978146287772	0	58.71015819115318	1.024685564802341	-5.039482803057186	0	0	-1.136659171971712	-2.058087517866071	1.52312238946094	0	-11.16178256779387	0	75.57091412734763	45.84308640701275	0	0	67.13024457661635	-29.53550343424624	18.95048094461186	0.008219436171545009	45.84308640701275	0	0
